# xmcd CD Database Entry
#
# Track frame offsets:
# 150
# 16000
# 27378
# 36554
#
# Disc length: 643 seconds
#
# Revision: 1
# Processed by: cddbd v1.4PL0 Copyright (c) Steve Scherf et al.
# Submitted via: tcd 2.0b
#
DISCID=29028104
DTITLE=Amalia Rodrigues
DYEAR=1900
DGENRE=
TTITLE0=Barco negro
TTITLE1=Coimbra
TTITLE2=Solidâo
TTITLE3=Uma casa portuguesa
EXTD=
EXTT0=
EXTT1=Avril au Portugal
EXTT2=
EXTT3=
PLAYORDER=
